<!-- =============================================================
 * ICONS — Icônes SVG ZANKA (inline pour éviter les requêtes HTTP)
 * =============================================================
 * Toutes les icônes en 24x24, stroke-width 1.5, currentColor.
 * Pourquoi inline plutôt que <img> ?
 * → On peut changer la couleur via CSS (color: ...)
 * → Pas de requête HTTP = plus rapide
 * → Accessibles (aria-label)
 * ============================================================= -->

<!-- Icône Compte / Utilisateur -->
<svg id="icon-compte" viewBox="0 0 24 24" fill="none" stroke="currentColor" stroke-width="1.5" stroke-linecap="round" stroke-linejoin="round">
  <path d="M20 21v-2a4 4 0 0 0-4-4H8a4 4 0 0 0-4 4v2"/>
  <circle cx="12" cy="7" r="4"/>
</svg>

<!-- Icône Panier / Shopping Bag -->
<svg id="icon-panier" viewBox="0 0 24 24" fill="none" stroke="currentColor" stroke-width="1.5" stroke-linecap="round" stroke-linejoin="round">
  <path d="M6 2L3 6v14a2 2 0 0 0 2 2h14a2 2 0 0 0 2-2V6l-3-4z"/>
  <line x1="3" y1="6" x2="21" y2="6"/>
  <path d="M16 10a4 4 0 0 1-8 0"/>
</svg>

<!-- Icône Recherche -->
<svg id="icon-recherche" viewBox="0 0 24 24" fill="none" stroke="currentColor" stroke-width="1.5" stroke-linecap="round" stroke-linejoin="round">
  <circle cx="11" cy="11" r="8"/>
  <line x1="21" y1="21" x2="16.65" y2="16.65"/>
</svg>

<!-- Icône Menu (Hamburger) -->
<svg id="icon-menu" viewBox="0 0 24 24" fill="none" stroke="currentColor" stroke-width="1.5" stroke-linecap="round">
  <line x1="3" y1="6" x2="21" y2="6"/>
  <line x1="3" y1="12" x2="21" y2="12"/>
  <line x1="3" y1="18" x2="21" y2="18"/>
</svg>

<!-- Icône Fermer (X) -->
<svg id="icon-fermer" viewBox="0 0 24 24" fill="none" stroke="currentColor" stroke-width="1.5" stroke-linecap="round">
  <line x1="18" y1="6" x2="6" y2="18"/>
  <line x1="6" y1="6" x2="18" y2="18"/>
</svg>

<!-- Icône Flèche droite -->
<svg id="icon-fleche-droite" viewBox="0 0 24 24" fill="none" stroke="currentColor" stroke-width="1.5" stroke-linecap="round" stroke-linejoin="round">
  <line x1="5" y1="12" x2="19" y2="12"/>
  <polyline points="12 5 19 12 12 19"/>
</svg>

<!-- Icône Cœur (Wishlist) -->
<svg id="icon-coeur" viewBox="0 0 24 24" fill="none" stroke="currentColor" stroke-width="1.5" stroke-linecap="round" stroke-linejoin="round">
  <path d="M20.84 4.61a5.5 5.5 0 0 0-7.78 0L12 5.67l-1.06-1.06a5.5 5.5 0 0 0-7.78 7.78l1.06 1.06L12 21.23l7.78-7.78 1.06-1.06a5.5 5.5 0 0 0 0-7.78z"/>
</svg>

<!-- Icône Livraison -->
<svg id="icon-livraison" viewBox="0 0 24 24" fill="none" stroke="currentColor" stroke-width="1.5" stroke-linecap="round" stroke-linejoin="round">
  <rect x="1" y="3" width="15" height="13"/>
  <polygon points="16 8 20 8 23 11 23 16 16 16 16 8"/>
  <circle cx="5.5" cy="18.5" r="2.5"/>
  <circle cx="18.5" cy="18.5" r="2.5"/>
</svg>

<!-- Icône Retour (flèche gauche) -->
<svg id="icon-retour" viewBox="0 0 24 24" fill="none" stroke="currentColor" stroke-width="1.5" stroke-linecap="round" stroke-linejoin="round">
  <line x1="19" y1="12" x2="5" y2="12"/>
  <polyline points="12 19 5 12 12 5"/>
</svg>

<!-- Icône Cadenas (paiement sécurisé) -->
<svg id="icon-cadenas" viewBox="0 0 24 24" fill="none" stroke="currentColor" stroke-width="1.5" stroke-linecap="round" stroke-linejoin="round">
  <rect x="3" y="11" width="18" height="11" rx="2" ry="2"/>
  <path d="M7 11V7a5 5 0 0 1 10 0v4"/>
</svg>

<!-- Icône Étoile (avis) -->
<svg id="icon-etoile" viewBox="0 0 24 24" fill="currentColor" stroke="currentColor" stroke-width="1" stroke-linejoin="round">
  <polygon points="12 2 15.09 8.26 22 9.27 17 14.14 18.18 21.02 12 17.77 5.82 21.02 7 14.14 2 9.27 8.91 8.26 12 2"/>
</svg>

<!-- Icône Vérification (checkmark) -->
<svg id="icon-check" viewBox="0 0 24 24" fill="none" stroke="currentColor" stroke-width="2" stroke-linecap="round" stroke-linejoin="round">
  <polyline points="20 6 9 17 4 12"/>
</svg>

<!-- Icône Instagram -->
<svg id="icon-instagram" viewBox="0 0 24 24" fill="none" stroke="currentColor" stroke-width="1.5" stroke-linecap="round" stroke-linejoin="round">
  <rect x="2" y="2" width="20" height="20" rx="5" ry="5"/>
  <path d="M16 11.37A4 4 0 1 1 12.63 8 4 4 0 0 1 16 11.37z"/>
  <line x1="17.5" y1="6.5" x2="17.51" y2="6.5"/>
</svg>

<!-- Icône Facebook -->
<svg id="icon-facebook" viewBox="0 0 24 24" fill="currentColor" stroke="none">
  <path d="M18 2h-3a5 5 0 0 0-5 5v3H7v4h3v8h4v-8h3l1-4h-4V7a1 1 0 0 1 1-1h3z"/>
</svg>

<!-- Icône Pinterest -->
<svg id="icon-pinterest" viewBox="0 0 24 24" fill="currentColor" stroke="none">
  <path d="M12 0C5.4 0 0 5.4 0 12c0 5.1 3.2 9.4 7.6 11.2-.1-.9-.2-2.4 0-3.4.2-.9 1.4-6 1.4-6s-.4-.8-.4-1.9c0-1.8 1-3.2 2.3-3.2 1.1 0 1.6.8 1.6 1.8 0 1.1-.7 2.7-1 4.2-.3 1.3.6 2.3 1.9 2.3 2.2 0 3.9-2.3 3.9-5.7 0-3-2.2-5.1-5.3-5.1-3.6 0-5.7 2.7-5.7 5.5 0 1.1.4 2.3.9 2.9.1.1.1.3 0 .4-.1.4-.3 1.3-.4 1.5-.1.2-.2.3-.4.2-1.5-.7-2.4-2.9-2.4-4.6 0-3.8 2.8-7.3 7.9-7.3 4.2 0 7.4 3 7.4 7 0 4.2-2.6 7.5-6.3 7.5-1.2 0-2.4-.6-2.8-1.4l-.8 3c-.3 1.1-1 2.4-1.5 3.3 1.1.3 2.3.5 3.5.5 6.6 0 12-5.4 12-12S18.6 0 12 0z"/>
</svg>
